<svg width="116" height="116" viewBox="0 0 116 116" fill="none" xmlns="http://www.w3.org/2000/svg">
<rect width="116" height="116" rx="58" fill="black"/>
<path d="M43.887 39.8539C53.9083 39.8539 62.0323 37.1463 62.0323 33.8064C62.0323 30.4664 53.9083 27.7588 43.887 27.7588C33.8656 27.7588 25.7417 30.4664 25.7417 33.8064C25.7417 37.1463 33.8656 39.8539 43.887 39.8539Z" stroke="white" stroke-width="2.8164" stroke-miterlimit="10" stroke-linecap="round"/>
<path d="M62.0298 44.3476V33.8066" stroke="white" stroke-width="2.8164" stroke-miterlimit="10" stroke-linecap="round"/>
<path d="M25.7417 74.1318C25.7417 77.4731 33.8657 80.1794 43.887 80.1794C47.6174 80.1794 51.0842 79.803 53.9671 79.1604" stroke="white" stroke-width="2.8164" stroke-miterlimit="10" stroke-linecap="round"/>
<path d="M25.7417 66.0674C25.7417 69.4087 33.8657 72.115 43.887 72.115C47.6174 72.115 51.0842 71.7386 53.9671 71.0959" stroke="white" stroke-width="2.8164" stroke-miterlimit="10" stroke-linecap="round"/>
<path d="M25.7417 58.002C25.7417 61.3432 33.8657 64.0495 43.887 64.0495C47.6174 64.0495 51.0842 63.6732 53.9671 63.0305" stroke="white" stroke-width="2.8164" stroke-miterlimit="10" stroke-linecap="round"/>
<path d="M25.7417 49.9385C25.7417 53.2797 33.8657 55.9861 43.887 55.9861C47.6174 55.9861 51.0842 55.6097 53.9671 54.967" stroke="white" stroke-width="2.8164" stroke-miterlimit="10" stroke-linecap="round"/>
<path d="M25.7417 41.874C25.7417 45.2153 33.8657 47.9216 43.887 47.9216C53.9082 47.9216 62.0323 45.2127 62.0323 41.874" stroke="white" stroke-width="2.8164" stroke-miterlimit="10" stroke-linecap="round"/>
<path d="M25.7417 33.8066V74.1323" stroke="white" stroke-width="2.8164" stroke-miterlimit="10" stroke-linecap="round"/>
<path d="M86.2147 45.9733C88.7418 47.0129 90.2549 48.3366 90.2549 49.778C90.2549 53.1193 82.1309 55.8256 72.1096 55.8256C62.0884 55.8256 53.9644 53.1168 53.9644 49.778C53.9644 46.4393 62.0884 43.7305 72.1096 43.7305C74.2296 43.7305 76.2651 43.8508 78.1572 44.0736" stroke="white" stroke-width="2.8164" stroke-miterlimit="10"/>
<circle cx="82.1899" cy="44.7471" r="1.4082" fill="white"/>
<path d="M90.2554 82.1947V49.7754" stroke="white" stroke-width="2.8164" stroke-miterlimit="10" stroke-linecap="round"/>
<path d="M53.9673 82.1943C53.9673 85.5356 62.0913 88.2419 72.1126 88.2419C82.1338 88.2419 90.2579 85.533 90.2579 82.1943" stroke="white" stroke-width="2.8164" stroke-miterlimit="10" stroke-linecap="round"/>
<path d="M53.9673 74.1318C53.9673 77.4731 62.0913 80.1794 72.1126 80.1794C82.1338 80.1794 90.2579 77.4705 90.2579 74.1318" stroke="white" stroke-width="2.8164" stroke-miterlimit="10" stroke-linecap="round"/>
<path d="M53.9673 66.0674C53.9673 69.4087 62.0913 72.115 72.1126 72.115C82.1338 72.115 90.2579 69.4061 90.2579 66.0674" stroke="white" stroke-width="2.8164" stroke-miterlimit="10" stroke-linecap="round"/>
<path d="M53.9673 58.002C53.9673 61.3432 62.0913 64.0495 72.1126 64.0495C82.1338 64.0495 90.2579 61.3407 90.2579 58.002" stroke="white" stroke-width="2.8164" stroke-miterlimit="10" stroke-linecap="round"/>
<path d="M53.9673 49.7754V79.1607V82.1947" stroke="white" stroke-width="2.8164" stroke-miterlimit="10" stroke-linecap="round"/>
</svg>
