<svg width="321" height="46" viewBox="0 0 321 46" fill="none" xmlns="http://www.w3.org/2000/svg">
<path d="M37.8164 15.4244C35.4799 10.9403 31.065 7.53308 24.3766 7.53308C14.9738 7.53308 8.8522 14.2215 8.8522 23.4354C8.8522 33.2161 15.0998 39.5266 24.3136 39.5266C32.142 39.5266 36.8717 35.4896 38.5784 29.9978H26.2786V23.2464H47.4082V23.3724C47.4082 36.3713 38.3832 46.4102 24.3703 46.4102C10.3574 46.4102 0.645996 36.1887 0.645996 23.4417C0.645996 10.6946 10.1118 0.466797 24.3766 0.466797C34.9131 0.466797 42.7414 6.14753 45.9596 15.4244H37.8164Z" fill="black"/>
<path d="M299.678 46.1584L282.384 12.0173V45.5286H277.906V1.34863H281.817L299.678 37.3224L317.533 1.34863H321.444V45.5286H316.96V12.0173L299.666 46.1584H299.678Z" fill="black"/>
<path d="M231.05 31.1379C238.368 29.5571 243.104 23.3725 243.104 16.3692C243.104 8.28896 236.793 1.34863 227.327 1.34863H210.543V1.63834L214.297 5.7068H226.824C234.148 5.7068 238.122 10.8207 238.122 16.3755C238.122 21.9303 234.148 27.1702 226.824 27.1702H221.162L225.186 31.522L238.128 45.5349H244.502L231.062 31.1442L231.05 31.1379Z" fill="black"/>
<path d="M101.665 21.6091H86.1535V5.76978H107.799V1.34863H81.1025V45.5286H86.1535V26.0302H105.746L101.665 21.6091Z" fill="black"/>
<path d="M151.551 7.95353C154.448 6.01376 158.025 4.88013 162.068 4.88013C173.052 4.88013 180.496 13.0863 180.496 23.4338C180.496 27.8739 179.104 31.9361 176.642 35.1228L179.923 38.6748C183.462 34.6631 185.547 29.3728 185.547 23.4338C185.547 10.4349 175.64 0.458984 162.068 0.458984C156.854 0.458984 152.181 1.95789 148.389 4.52745L151.551 7.94723V7.95353Z" fill="black"/>
<path d="M172.586 38.9222C169.695 40.8619 166.124 41.9955 162.069 41.9955C151.148 41.9955 143.641 33.7264 143.641 23.4418C143.641 18.9892 145.039 14.9333 147.495 11.7592L144.227 8.21973C140.687 12.2315 138.596 17.5155 138.596 23.4481C138.596 36.51 148.566 46.423 162.075 46.423C167.302 46.423 171.982 44.9304 175.76 42.3671L172.586 38.9348V38.9222Z" fill="black"/>
</svg>
