<svg width="116" height="116" viewBox="0 0 116 116" fill="none" xmlns="http://www.w3.org/2000/svg">
<rect width="116" height="116" rx="58" fill="black"/>
<g clip-path="url(#clip0_47_553)">
<path d="M48.8228 46.5811H66.6736L59.9731 57.7519H68.9088L58.844 74.4096L53.2701 62.8496H48.8228V46.5811Z" stroke="white" stroke-width="2.8164" stroke-linejoin="round"/>
<path d="M81.7133 62.8007L89.6171 64.401C90.5004 60.0355 90.4953 55.9031 89.6043 51.5403L81.7081 53.1559C81.0809 50.0911 79.8647 47.2004 78.1595 44.6324L84.8804 40.1748C82.4174 36.4623 79.4934 33.5435 75.7758 31.0907L71.3336 37.8167C68.8142 36.1525 65.9389 34.9312 62.7973 34.2962L64.3975 26.3924C60.0321 25.5091 55.8997 25.5142 51.5368 26.4052L53.1524 34.3013C50.0877 34.9286 47.197 36.1448 44.629 37.85L40.1714 31.1291C36.4589 33.5921 33.5401 36.5161 31.0872 40.2337L37.8133 44.6759C36.1491 47.1953 34.9278 50.0706 34.2928 53.2122L26.389 51.612C25.5056 55.9774 25.5108 60.1098 26.4018 64.4727L34.2979 62.8571C34.9252 65.9218 36.1414 68.8125 37.8466 71.3805L31.1256 75.8381C33.5887 79.5506 36.5126 82.4694 40.2303 84.9223L44.6725 78.1962C47.1919 79.8604 50.0672 81.0817 53.2088 81.7167L51.6085 89.6205C55.974 90.5039 60.1064 90.4987 64.4692 89.6077L62.8536 81.7116C65.9184 81.0843 68.809 79.8681 71.3771 78.1629L75.8347 84.8839C79.5472 82.4208 82.466 79.4969 84.9188 75.7792L78.1928 71.337C79.857 68.8176 81.0783 65.9423 81.7133 62.8007Z" stroke="white" stroke-width="2.8164" stroke-linecap="round" stroke-linejoin="round"/>
</g>
<defs>
<clipPath id="clip0_47_553">
<rect width="67.3657" height="67.3657" fill="white" transform="translate(24.3174 24.3174)"/>
</clipPath>
</defs>
</svg>
