<svg width="165" height="95" viewBox="0 0 165 95" fill="none" xmlns="http://www.w3.org/2000/svg">
<path d="M86.3383 56.3813L78.4764 82.6516L56.7685 5.22691L56.5633 4.49805H55.811H53.8152H53.0598L52.8578 5.22691L31.1467 82.5394L19.629 44.109L7.97145 5.21134L7.75695 4.49805H7.01708H5.02441H3.68457L4.07005 5.78446L15.7432 44.6821L29.2846 89.8125L29.4991 90.5227H30.239H32.1166H32.872L33.0772 89.7938L54.7572 12.6962L76.5491 89.7969L76.7542 90.5227H77.5065H79.3842H80.1241L80.3385 89.8125L90.3703 56.3813H89.82H86.3383Z" fill="black"/>
<path d="M144.971 51.7083C142.223 48.6153 138.483 46.3073 134.037 44.9336C141.868 41.5634 146.603 34.7981 146.603 26.6497C146.603 19.4016 144.069 13.7202 139.07 9.76439L139.058 9.75504L139.045 9.7457C134.435 6.31007 127.944 4.49414 120.272 4.49414H87.9604V33.8636H91.7126V8.13535H120.157C126.925 8.13535 132.576 9.71455 136.503 12.7048C140.718 15.9161 142.854 20.6039 142.854 26.6435C142.854 31.1849 140.967 35.3712 137.544 38.4299C134.149 41.4606 129.471 43.2236 124.366 43.3918H101.281V47.033H124.615C137.892 47.3787 146.491 54.9197 146.491 66.2482C146.491 72.4716 144.144 77.6889 139.701 81.3426C135.337 84.909 129.104 86.8745 122.153 86.8745H121.155L121.133 87.8743V90.5188H122.268C130.267 90.5188 137.37 88.2232 142.266 84.0524C147.482 79.5889 150.24 73.4341 150.24 66.2513C150.24 60.6104 148.418 55.58 144.974 51.7052L144.971 51.7083Z" fill="black"/>
<path d="M94.6479 40.5078H85.4307V49.7432H94.6479V40.5078Z" fill="black"/>
</svg>
