<svg width="187" height="116" viewBox="0 0 187 116" fill="none" xmlns="http://www.w3.org/2000/svg">
<path d="M174.62 53.5518L166.105 86.1213L157.589 53.5518H145.475L155.6 94.315H163.969L160.75 106.547H173.743L186.735 53.5518H174.62Z" fill="black"/>
<path d="M145.475 106.546C130.843 106.546 118.962 94.6651 118.962 80.0337C118.962 65.4022 130.843 53.5215 145.475 53.5215V106.546Z" fill="black"/>
<path d="M145.475 53.5517C130.843 53.5517 118.962 41.671 118.962 27.0395C118.962 12.4081 130.843 0.527344 145.475 0.527344V53.5517Z" fill="black"/>
<path d="M2.78876 104.616C4.89569 105.435 7.1782 106.02 10.0752 106.02C14.055 106.02 16.4838 104.674 17.8299 100.548H9.60702L0.00878906 63.8818H10.0167L18.5322 98.1194L26.9014 63.8818H36.5581L26.7551 102.041C24.5311 110.819 19.2052 115.472 10.3971 115.472C7.61714 115.472 4.98348 115.121 2.7595 114.39V104.616H2.78876Z" fill="black"/>
<path d="M58.0371 62.9443C68.3084 62.9443 75.1267 70.5819 75.1267 82.053C75.1267 83.3406 75.0681 84.0136 74.9804 84.8915H49.2583C50.341 90.3051 54.3793 93.6118 60.9342 93.6118C64.9725 93.6118 68.8937 92.4706 72.2004 90.9197V100.255C68.2792 101.864 64.2409 102.683 59.5588 102.683C47.5318 102.683 39.5723 94.636 39.5723 82.8138C39.5723 71.0502 47.1514 62.9443 58.0371 62.9443ZM49.0534 80.4435H66.2015C65.7918 74.5617 62.6899 71.6062 58.0371 71.6062C52.8869 71.5769 49.4339 74.5617 49.0534 80.4435Z" fill="black"/>
<path d="M80.5107 90.8328C83.554 92.2374 88.2654 93.4665 92.8011 93.4665C98.8878 93.4665 100.761 91.857 100.761 89.6038C100.761 82.5807 80.8911 87.7895 80.8911 74.0652C80.8911 68.1833 85.6317 62.916 96.6346 62.916C100.761 62.916 104.272 63.5891 107.637 64.8181V74.6212C104.799 73.1288 100.761 72.046 96.8394 72.046C92.0403 72.046 90.5479 73.9481 90.5479 75.4991C90.5479 81.4394 110.681 76.9037 110.681 90.8913C110.681 97.4462 105.413 102.655 92.7719 102.655C88.0313 102.655 83.9345 101.982 80.4814 100.753V90.8328H80.5107Z" fill="black"/>
</svg>
